<mxfile host="app.diagrams.net" modified="2023-05-18T18:30:31.716Z" agent="Mozilla/5.0 (Windows NT 10.0; Win64; x64) AppleWebKit/537.36 (KHTML, like Gecko) Chrome/113.0.0.0 Safari/537.36" etag="DVzxMxwhZ52dKQGGALzs" version="21.3.0" type="device">
  <diagram name="Página-1" id="Zw9kJd7RxNHNiJt8LdYq">
    <mxGraphModel dx="954" dy="527" grid="1" gridSize="10" guides="1" tooltips="1" connect="1" arrows="1" fold="1" page="1" pageScale="1" pageWidth="827" pageHeight="1169" math="0" shadow="0">
      <root>
        <mxCell id="0" />
        <mxCell id="1" parent="0" />
        <mxCell id="l7xRKMgASYydZYV0aW_U-7" value="" style="whiteSpace=wrap;html=1;aspect=fixed;strokeWidth=0;strokeColor=none;" vertex="1" parent="1">
          <mxGeometry x="190" y="10" width="390" height="390" as="geometry" />
        </mxCell>
        <mxCell id="l7xRKMgASYydZYV0aW_U-1" value="Actor" style="shape=umlActor;verticalLabelPosition=bottom;verticalAlign=top;html=1;outlineConnect=0;" vertex="1" parent="1">
          <mxGeometry x="200" y="175" width="30" height="60" as="geometry" />
        </mxCell>
        <mxCell id="l7xRKMgASYydZYV0aW_U-2" value="" style="rounded=0;whiteSpace=wrap;html=1;" vertex="1" parent="1">
          <mxGeometry x="280" y="120" width="240" height="230" as="geometry" />
        </mxCell>
        <mxCell id="l7xRKMgASYydZYV0aW_U-3" value="HostApp" style="text;html=1;strokeColor=none;fillColor=none;align=center;verticalAlign=middle;whiteSpace=wrap;rounded=0;" vertex="1" parent="1">
          <mxGeometry x="370" y="120" width="60" height="30" as="geometry" />
        </mxCell>
        <mxCell id="l7xRKMgASYydZYV0aW_U-4" value="Eliminar reservas administrador" style="ellipse;whiteSpace=wrap;html=1;" vertex="1" parent="1">
          <mxGeometry x="347.5" y="170" width="105" height="60" as="geometry" />
        </mxCell>
        <mxCell id="l7xRKMgASYydZYV0aW_U-5" value="" style="endArrow=none;html=1;rounded=0;exitX=0.5;exitY=0.5;exitDx=0;exitDy=0;exitPerimeter=0;" edge="1" parent="1" source="l7xRKMgASYydZYV0aW_U-1" target="l7xRKMgASYydZYV0aW_U-4">
          <mxGeometry width="50" height="50" relative="1" as="geometry">
            <mxPoint x="390" y="30" as="sourcePoint" />
            <mxPoint x="440" y="-20" as="targetPoint" />
          </mxGeometry>
        </mxCell>
        <mxCell id="l7xRKMgASYydZYV0aW_U-6" value="&lt;font style=&quot;font-size: 18px;&quot;&gt;&lt;u&gt;Eliminar reservas administrador&lt;/u&gt;&lt;/font&gt;" style="text;html=1;strokeColor=none;fillColor=none;align=center;verticalAlign=middle;whiteSpace=wrap;rounded=0;" vertex="1" parent="1">
          <mxGeometry x="280" y="70" width="230" height="40" as="geometry" />
        </mxCell>
        <mxCell id="l7xRKMgASYydZYV0aW_U-8" value="Reservas creadas" style="ellipse;whiteSpace=wrap;html=1;" vertex="1" parent="1">
          <mxGeometry x="290" y="280" width="90" height="40" as="geometry" />
        </mxCell>
        <mxCell id="l7xRKMgASYydZYV0aW_U-10" value="Sesión abierta" style="ellipse;whiteSpace=wrap;html=1;" vertex="1" parent="1">
          <mxGeometry x="414" y="280" width="90" height="40" as="geometry" />
        </mxCell>
        <mxCell id="l7xRKMgASYydZYV0aW_U-11" value="Use" style="endArrow=open;endSize=12;dashed=1;html=1;rounded=0;exitX=0.5;exitY=1;exitDx=0;exitDy=0;entryX=0.5;entryY=0;entryDx=0;entryDy=0;" edge="1" parent="1" source="l7xRKMgASYydZYV0aW_U-4" target="l7xRKMgASYydZYV0aW_U-8">
          <mxGeometry width="160" relative="1" as="geometry">
            <mxPoint x="330" y="250" as="sourcePoint" />
            <mxPoint x="490" y="250" as="targetPoint" />
            <Array as="points">
              <mxPoint x="400" y="260" />
              <mxPoint x="335" y="260" />
            </Array>
          </mxGeometry>
        </mxCell>
        <mxCell id="l7xRKMgASYydZYV0aW_U-12" value="Use" style="endArrow=open;endSize=12;dashed=1;html=1;rounded=0;entryX=0.5;entryY=0;entryDx=0;entryDy=0;" edge="1" parent="1" target="l7xRKMgASYydZYV0aW_U-10">
          <mxGeometry width="160" relative="1" as="geometry">
            <mxPoint x="400" y="230" as="sourcePoint" />
            <mxPoint x="345" y="290" as="targetPoint" />
            <Array as="points">
              <mxPoint x="400" y="260" />
              <mxPoint x="459" y="260" />
            </Array>
          </mxGeometry>
        </mxCell>
      </root>
    </mxGraphModel>
  </diagram>
</mxfile>
